<?xml version="1.0" encoding="utf-8"?>
<!-- Generator: Adobe Illustrator 17.1.0, SVG Export Plug-In . SVG Version: 6.00 Build 0)  -->
<!DOCTYPE svg PUBLIC "-//W3C//DTD SVG 1.1//EN" "http://www.w3.org/Graphics/SVG/1.1/DTD/svg11.dtd">
<svg version="1.1" id="Layer_1" xmlns="http://www.w3.org/2000/svg" xmlns:xlink="http://www.w3.org/1999/xlink" x="0px" y="0px"
	 width="108.733px" height="140.545px" viewBox="0 0 108.733 140.545" enable-background="new 0 0 108.733 140.545"
	 xml:space="preserve">
<g>
	<g>
		<path fill="#FFFFFF" d="M54.367,0C24.388,0,0,24.355,0,54.291v77.886c0,1.422,0.067,2.912,0.205,4.552
			c0.182,2.174,2.003,3.816,4.146,3.816c0.077,0,0.151-0.004,0.228-0.008c1.348,0.057,2.699-0.539,3.549-1.711l13.293-18.276
			l13.289,18.279c0.036,0.051,0.086,0.087,0.125,0.136c0.123,0.155,0.257,0.299,0.408,0.437c0.088,0.086,0.178,0.173,0.276,0.25
			c0.04,0.03,0.073,0.067,0.113,0.097c0.11,0.081,0.232,0.136,0.351,0.205c0.105,0.061,0.203,0.13,0.312,0.181
			c0.241,0.113,0.485,0.199,0.733,0.264c0.041,0.01,0.077,0.029,0.115,0.037c0.285,0.067,0.573,0.096,0.863,0.102
			c0.025,0,0.054,0.008,0.077,0.008c0.05,0,0.098-0.021,0.151-0.022c0.322-0.012,0.642-0.063,0.952-0.148
			c0.078-0.021,0.155-0.033,0.228-0.059c0.358-0.12,0.692-0.295,1.009-0.51c0.033-0.024,0.073-0.031,0.107-0.055
			c0.065-0.047,0.113-0.108,0.175-0.156c0.105-0.085,0.207-0.173,0.302-0.268c0.113-0.114,0.215-0.23,0.312-0.352
			c0.046-0.053,0.094-0.094,0.135-0.148l13.287-18.276l13.293,18.279c0.037,0.053,0.09,0.089,0.13,0.14
			c0.119,0.151,0.253,0.293,0.399,0.429c0.094,0.087,0.187,0.177,0.285,0.254c0.041,0.03,0.069,0.069,0.11,0.097
			c0.109,0.079,0.232,0.134,0.346,0.201c0.107,0.063,0.207,0.134,0.318,0.185c0.239,0.113,0.484,0.199,0.732,0.264
			c0.04,0.01,0.073,0.029,0.113,0.037c0.285,0.067,0.573,0.096,0.862,0.102c0.025,0,0.054,0.008,0.077,0.008
			c0.05,0,0.098-0.021,0.151-0.022c0.322-0.012,0.64-0.063,0.952-0.148c0.078-0.021,0.155-0.033,0.228-0.059
			c0.359-0.12,0.692-0.295,1.01-0.51c0.032-0.024,0.073-0.031,0.105-0.055c0.065-0.047,0.115-0.106,0.175-0.156
			c0.105-0.085,0.207-0.175,0.305-0.27c0.109-0.11,0.212-0.226,0.305-0.344c0.044-0.055,0.097-0.097,0.138-0.154l13.295-18.289
			l12.964,17.738c1.03,1.412,2.832,2.028,4.514,1.548c1.676-0.479,2.882-1.953,3.012-3.694c0.086-1.16,0.17-2.538,0.17-3.953V54.291
			C108.733,24.354,84.346,0,54.367,0z M31.311,65.061c-6.671,0-12.1-5.419-12.1-12.083c0-6.663,5.429-12.082,12.1-12.082
			c6.671,0,12.1,5.419,12.1,12.082C43.411,59.642,37.982,65.061,31.311,65.061z M78.177,65.061c-6.671,0-12.1-5.419-12.1-12.083
			c0-6.663,5.429-12.082,12.1-12.082c6.67,0,12.1,5.419,12.1,12.082C90.277,59.642,84.847,65.061,78.177,65.061z M31.311,49.219
			c-2.076,0-3.765,1.687-3.765,3.759c0,2.073,1.689,3.759,3.765,3.759c2.076,0,3.765-1.686,3.765-3.759
			C35.076,50.905,33.387,49.219,31.311,49.219z M78.177,49.219c-2.076,0-3.765,1.687-3.765,3.759c0,2.073,1.689,3.759,3.765,3.759
			c2.076,0,3.765-1.686,3.765-3.759C81.942,50.905,80.253,49.219,78.177,49.219z"/>
	</g>
</g>
</svg>
