<?xml version="1.0" encoding="utf-8"?>
<!-- Generator: Adobe Illustrator 21.1.0, SVG Export Plug-In . SVG Version: 6.00 Build 0)  -->
<svg version="1.1" id="Layer_1" xmlns="http://www.w3.org/2000/svg" xmlns:xlink="http://www.w3.org/1999/xlink" x="0px" y="0px"
	 width="501.1px" height="147.7px" viewBox="0 0 501.1 147.7" style="enable-background:new 0 0 501.1 147.7;" xml:space="preserve"
	>
<style type="text/css">
	.st0{fill:#FFFFFF;}
	.st1{fill:#6FC16F;}
</style>
<g>
	<g>
		<path class="st0" d="M377.3,54.5"/>
		<path class="st0" d="M441.6,54.5"/>
		<path class="st0" d="M278.8,0.2h-0.1c-3.5,0-6.3,2.8-6.3,6.3v97c0,3.5,2.8,6.3,6.3,6.3h0.1c3.5,0,6.3-2.8,6.3-6.3v-97
			C285.1,3,282.3,0.2,278.8,0.2z"/>
		<path class="st0" d="M225.1,37.2c-19.9,0-36.1,16.1-36.2,36h0v68.2c0,3.5,2.8,6.3,6.3,6.3h0.1c3.5,0,6.3-2.8,6.3-6.3V74.2v-0.8
			c0-13.5,11.3-24.3,25-23.5c11.7,0.7,21.3,10.3,22,22c0.8,13.7-10,25-23.5,25c-3.3,0-6.4-0.7-9.2-1.9c-3-1.3-6.5-0.1-8,2.8
			l-0.1,0.1c-1.7,3.3-0.3,7.3,3.1,8.7c5.2,2.2,11.1,3.3,17.2,2.8c17.7-1.4,31.8-15.8,33.1-33.4C262.6,54.8,245.9,37.2,225.1,37.2z"
			/>
		<path class="st0" d="M369.3,73.2c-0.1-19.9-16.2-36-36.2-36c-20.8,0-37.6,17.6-36.1,38.8c1.2,17.7,15.4,32,33.1,33.4
			c6.1,0.5,12-0.5,17.2-2.8c3.4-1.4,4.8-5.5,3.1-8.7l-0.1-0.1c-1.5-2.9-5-4.1-8-2.8c-2.8,1.2-6,1.9-9.2,1.9
			c-13.5,0-24.3-11.4-23.5-25c0.7-11.7,10.3-21.3,22-22c13.7-0.8,25,10,25,23.5v0.8v29.2c0,3.5,2.8,6.3,6.3,6.3h0.1
			c3.5,0,6.3-2.8,6.3-6.3L369.3,73.2L369.3,73.2z"/>
		<path class="st0" d="M435.1,63c-0.5-14.3-12.4-25.8-26.8-25.8c-14.4,0-26.4,11.5-26.8,25.8c0,0.1,0,0.3,0,0.4v40
			c0,3.5,2.8,6.3,6.3,6.3h0.1c3.5,0,6.3-2.8,6.3-6.3V63.9c0-7.9,6.3-14.3,14.2-14.3s14.2,6.4,14.2,14.3v39.6c0,3.5,2.8,6.3,6.3,6.3
			h0.1c3.5,0,6.3-2.8,6.3-6.3v-40C435.1,63.3,435.1,63.2,435.1,63z"/>
		<path class="st0" d="M501.1,63c-0.5-14.3-12.4-25.8-26.8-25.8c-14.4,0-26.4,11.5-26.8,25.8c0,0.1,0,0.3,0,0.4v40
			c0,3.5,2.8,6.3,6.3,6.3h0.1c3.5,0,6.3-2.8,6.3-6.3V63.9c0-7.9,6.3-14.3,14.2-14.3s14.2,6.4,14.2,14.3v39.6c0,3.5,2.8,6.3,6.3,6.3
			h0.1c3.5,0,6.3-2.8,6.3-6.3v-40C501.1,63.3,501.1,63.2,501.1,63z"/>
	</g>
	<path class="st1" d="M63.5,103.6L37.2,77.3c-3-3-4-7.8-2.1-11.4c3.2-6.3,11.2-7.2,15.7-2.7l12.5,12.5c2.5,2.5,6.3,2.5,8.7,0
		l44.2-44.2c5.5-5.5,4.5-14.6-1.7-19C101.6,3.9,85.9-0.8,69,0.1C31.5,2.4,1.4,33.3,0,70.6c-1.5,43.8,35.3,79.4,79.4,75.8
		c35.3-2.8,64.1-31.3,67.1-66.5c0.8-8,0.2-15.5-1.5-22.7c-2.1-9.5-13.8-12.7-20.7-5.9l-52.1,52.3C69.8,106.1,66,106.1,63.5,103.6
		L63.5,103.6z"/>
</g>
</svg>
